<?xml version="1.0" encoding="utf-8"?>
<!-- Generator: Adobe Illustrator 23.0.3, SVG Export Plug-In . SVG Version: 6.00 Build 0)  -->
<svg version="1.1" id="Layer_1" xmlns="http://www.w3.org/2000/svg" xmlns:xlink="http://www.w3.org/1999/xlink" x="0px" y="0px"
	 viewBox="0 0 850.4 643.5" style="enable-background:new 0 0 850.4 643.5;" xml:space="preserve">
<style type="text/css">
	.st0{fill:none;stroke:#FF0000;stroke-width:2;}
</style>
<title>fixture_som3</title>
<path id="path3690" class="st0" d="M0.7,628.5L0,9.1c0,0,0.9-10.4,11.4-8.9s829.4,0.7,829.4,0.7s10-1.6,9.6,10
	c-0.6,23.9-0.4,32.4-0.4,32.4l-25.6-0.5c0,0-12.8,0.7-13.3,14.2s1.9,566.3,1.9,566.3l15.1-0.7c18.3-0.8,22.1,7.5,22.1,7.5l0,0
	c0.3,10.9-1.1,12.6-7.7,12.9l-827.7,0.3C3.8,643.9,0.4,636.1,0.7,628.5L0.7,628.5z"/>
<g id="layer1">
	<path id="path21" class="st0" d="M442.6,613.7l350.4-0.4c0,0-10.9,0-0.6,0c5.8,0,6.7-5.6,6.7-5.6l0.1-56.1l0,0c0-1.3-1-2.3-2.3-2.5
		c-0.9,0-0.3,0-0.7,0c-1.2,0.1-2.3-0.9-2.3-2.1c0-0.1,0-0.2,0-0.3v-18.1c0-1.4,0.4-2.5,2.6-2.4l0,0h0.4c2.6-0.1,2.5-2.1,2.5-2.1
		v-149c0,0,0,5.9,0-0.1c0-5.9-7.4-6.2-7.4-6.2l-350.3,0.1l0,0c-6.4,0.1-6.8,6.2-6.8,6.2c0.2,68.7,0.4,125.8,0.3,149
		c-0.1,1,0.6,2,1.6,2.1c0.1,0,0.3,0,0.4,0h0.9c2,0,2.3,1,2.2,2.1l0.1,18.8c0,0.8-0.7,2.2-2.7,2.1c-0.9,0,0.2,0-0.6,0
		c-1.8,0-1.9,1.9-1.9,2.4c0.2,18.7,0,33.5-0.1,54.3C434.9,609.6,436.9,613.6,442.6,613.7L442.6,613.7z"/>
</g>
<g id="layer1-2">
	<path id="path21-2" class="st0" d="M442.6,348.4L793,348c0,0-10.9,0-0.6,0c5.8,0,6.7-5.6,6.7-5.6l0.1-56.1l0,0c0-1.3-1-2.3-2.3-2.5
		c-0.9,0-0.3,0-0.7,0c-1.2,0.1-2.3-0.9-2.3-2.1c0-0.1,0-0.2,0-0.3v-18.1c0-1.4,0.4-2.5,2.6-2.4l0,0h0.4c2.6-0.1,2.5-2.1,2.5-2.1
		v-149c0,0,0,5.9,0-0.1c0-5.9-7.4-6.2-7.4-6.2l-350.3,0.1l0,0c-6.4,0.1-6.8,6.2-6.8,6.2c0.2,68.7,0.4,125.8,0.3,149
		c-0.1,1,0.6,2,1.6,2.1c0.1,0,0.3,0,0.4,0h0.9c2,0,2.3,1,2.2,2.1l0.1,18.8c0,0.8-0.7,2.2-2.7,2.1c-0.9,0,0.2,0-0.6,0
		c-1.8,0-1.9,1.9-1.9,2.4c0.2,18.7,0,33.5-0.1,54.3C434.9,344.3,436.9,348.3,442.6,348.4L442.6,348.4z"/>
</g>
<g id="layer1-3">
	<path id="path21-3" class="st0" d="M63.9,613.7l350.4-0.4c0,0-10.9,0-0.6,0c5.8,0,6.7-5.6,6.7-5.6l0.1-56.1l0,0
		c0-1.3-1-2.3-2.3-2.5c-0.9,0-0.3,0-0.7,0c-1.2,0.1-2.3-0.9-2.3-2.1c0-0.1,0-0.2,0-0.3v-18.1c0-1.4,0.4-2.5,2.6-2.4l0,0h0.4
		c2.6-0.1,2.5-2.1,2.5-2.1v-149c0,0,0,5.9,0-0.1c0-5.9-7.4-6.2-7.4-6.2L63,368.9l0,0c-6.4,0.1-6.8,6.2-6.8,6.2
		c0.2,68.7,0.4,125.8,0.3,149c-0.1,1,0.6,2,1.6,2.1c0.1,0,0.3,0,0.4,0h0.9c2,0,2.3,1,2.2,2.1l0.1,18.8c0,0.8-0.7,2.2-2.7,2.1
		c-0.9,0,0.2,0-0.6,0c-1.8,0-1.9,1.9-1.9,2.4c0.2,18.7,0,33.5-0.1,54.3C56.2,609.6,58.2,613.6,63.9,613.7L63.9,613.7z"/>
</g>
<g id="layer1-4">
	<path id="path21-4" class="st0" d="M63.9,348.4l350.4-0.4c0,0-10.9,0-0.6,0c5.8,0,6.7-5.6,6.7-5.6l0.1-56.1l0,0
		c0-1.3-1-2.3-2.3-2.5c-0.9,0-0.3,0-0.7,0c-1.2,0.1-2.3-0.9-2.3-2.1c0-0.1,0-0.2,0-0.3v-18.1c0-1.4,0.4-2.5,2.6-2.4l0,0h0.4
		c2.6-0.1,2.5-2.1,2.5-2.1v-149c0,0,0,5.9,0-0.1c0-5.9-7.4-6.2-7.4-6.2L63,103.6l0,0c-6.4,0.1-6.8,6.2-6.8,6.2
		c0.2,68.7,0.4,125.8,0.3,149c-0.1,1,0.6,2,1.6,2.1c0.1,0,0.3,0,0.4,0h0.9c2,0,2.3,1,2.2,2.1l0.1,18.8c0,0.8-0.7,2.2-2.7,2.1
		c-0.9,0,0.2,0-0.6,0c-1.8,0-1.9,1.9-1.9,2.4c0.2,18.7,0,33.5-0.1,54.3C56.2,344.3,58.2,348.3,63.9,348.4L63.9,348.4z"/>
</g>
<rect x="386.2" y="75.2" class="st0" width="86" height="15"/>
</svg>
