<?xml version="1.0" encoding="utf-8"?>
<!-- Generator: Adobe Illustrator 15.1.0, SVG Export Plug-In . SVG Version: 6.00 Build 0)  -->
<!DOCTYPE svg PUBLIC "-//W3C//DTD SVG 1.1//EN" "http://www.w3.org/Graphics/SVG/1.1/DTD/svg11.dtd">
<svg version="1.1" id="Layer_1" xmlns="http://www.w3.org/2000/svg" xmlns:xlink="http://www.w3.org/1999/xlink" x="0px" y="0px"
	 width="1700.791px" height="850.391px" viewBox="0 0 1700.791 850.391" enable-background="new 0 0 1700.791 850.391"
	 xml:space="preserve">
<title>fixture_som3</title>
<path id="path3690" fill="none" stroke="#FF0000" stroke-width="2.834646e-004" d="M1018.839,849.746l-619.576,0.7
	c0,0-10.403-0.9-8.903-11.403s0.7-829.637,0.7-829.637s-1.6-10.002,10.003-9.603c23.907,0.601,32.41,0.4,32.41,0.4l-0.501,25.607
	c0,0,0.7,12.804,14.205,13.304c13.503,0.5,566.461-1.9,566.461-1.9l-0.699-15.104c-0.801-18.306,7.502-22.106,7.502-22.106l0,0
	c10.902-0.3,12.604,1.1,12.903,7.703l0.3,827.935C1034.244,846.646,1026.442,850.046,1018.839,849.746L1018.839,849.746z"/>
<g id="layer1">
	<path id="path21" fill="none" stroke="#FF0000" stroke-width="2.834646e-004" d="M1002.826,407.792l-0.398-349.062
		c0,0,0,10.859,0,0.598c0-5.777-5.58-6.674-5.58-6.674l-55.885-0.101l0,0c-1.296,0-2.291,0.997-2.491,2.292c0,0.896,0,0.299,0,0.697
		c0.101,1.196-0.896,2.291-2.092,2.291c-0.1,0-0.198,0-0.299,0H918.05c-1.395,0-2.49-0.398-2.39-2.59l0,0v-0.398
		c-0.101-2.59-2.093-2.49-2.093-2.49H765.136c0,0,5.878,0-0.1,0c-5.878,0-6.176,7.371-6.176,7.371l0.099,348.963l0,0
		c0.1,6.375,6.177,6.774,6.177,6.774c68.438-0.2,125.32-0.399,148.431-0.299c0.996,0.099,1.992-0.598,2.093-1.595
		c0-0.1,0-0.298,0-0.398v-0.896c0-1.992,0.995-2.291,2.091-2.192l18.729-0.099c0.797,0,2.192,0.697,2.093,2.689
		c0,0.896,0-0.199,0,0.598c0,1.793,1.892,1.893,2.391,1.893c18.629-0.2,33.371,0,54.091,0.099
		C998.741,415.463,1002.725,413.47,1002.826,407.792L1002.826,407.792z"/>
</g>
<g id="layer1-2">
	<path id="path21-2" fill="none" stroke="#FF0000" stroke-width="2.834646e-004" d="M738.539,407.792L738.14,58.73
		c0,0,0,10.859,0,0.598c0-5.777-5.579-6.674-5.579-6.674l-55.886-0.101l0,0c-1.295,0-2.291,0.997-2.49,2.292
		c0,0.896,0,0.299,0,0.697c0.099,1.196-0.897,2.291-2.093,2.291c-0.099,0-0.199,0-0.299,0h-18.03c-1.395,0-2.49-0.398-2.391-2.59
		l0,0v-0.398c-0.099-2.59-2.091-2.49-2.091-2.49H500.849c0,0,5.878,0-0.1,0c-5.877,0-6.176,7.371-6.176,7.371l0.1,348.963l0,0
		c0.1,6.375,6.176,6.774,6.176,6.774c68.438-0.2,125.32-0.399,148.432-0.299c0.996,0.099,1.993-0.598,2.091-1.595
		c0-0.1,0-0.298,0-0.398v-0.896c0-1.992,0.997-2.291,2.092-2.192l18.729-0.099c0.796,0,2.191,0.697,2.091,2.689
		c0,0.896,0-0.199,0,0.598c0,1.793,1.893,1.893,2.391,1.893c18.628-0.2,33.372,0,54.092,0.099
		C734.455,415.463,738.439,413.47,738.539,407.792L738.539,407.792z"/>
</g>
<g id="layer1-3">
	<path id="path21-3" fill="none" stroke="#FF0000" stroke-width="2.834646e-004" d="M1002.826,785.046l-0.398-349.063
		c0,0,0,10.859,0,0.599c0-5.777-5.58-6.675-5.58-6.675l-55.885-0.101l0,0c-1.296,0-2.291,0.998-2.491,2.292c0,0.896,0,0.299,0,0.697
		c0.101,1.195-0.896,2.291-2.092,2.291c-0.1,0-0.198,0-0.299,0H918.05c-1.395,0-2.49-0.397-2.39-2.59l0,0v-0.398
		c-0.101-2.59-2.093-2.49-2.093-2.49H765.136c0,0,5.878,0-0.1,0c-5.878,0-6.176,7.372-6.176,7.372l0.099,348.962l0,0
		c0.1,6.375,6.177,6.773,6.177,6.773c68.438-0.199,125.32-0.398,148.431-0.299c0.996,0.1,1.992-0.598,2.093-1.594
		c0-0.1,0-0.299,0-0.398v-0.896c0-1.992,0.995-2.291,2.091-2.192l18.729-0.099c0.797,0,2.192,0.697,2.093,2.69
		c0,0.896,0-0.2,0,0.597c0,1.793,1.892,1.893,2.391,1.893c18.628-0.199,33.371,0,54.091,0.1
		C998.741,792.716,1002.725,790.724,1002.826,785.046L1002.826,785.046z"/>
</g>
<g id="layer1-4">
	<path id="path21-4" fill="none" stroke="#FF0000" stroke-width="2.834646e-004" d="M738.539,785.046l-0.398-349.063
		c0,0,0,10.859,0,0.599c0-5.777-5.579-6.675-5.579-6.675l-55.886-0.101l0,0c-1.295,0-2.291,0.998-2.49,2.292
		c0,0.896,0,0.299,0,0.697c0.099,1.195-0.897,2.291-2.093,2.291c-0.099,0-0.199,0-0.299,0h-18.03c-1.395,0-2.49-0.397-2.391-2.59
		l0,0v-0.398c-0.099-2.59-2.091-2.49-2.091-2.49H500.849c0,0,5.878,0-0.1,0c-5.877,0-6.176,7.372-6.176,7.372l0.1,348.962l0,0
		c0.1,6.375,6.176,6.773,6.176,6.773c68.438-0.199,125.32-0.398,148.432-0.299c0.996,0.1,1.993-0.598,2.091-1.594
		c0-0.1,0-0.299,0-0.398v-0.896c0-1.992,0.997-2.291,2.092-2.192l18.729-0.099c0.796,0,2.191,0.697,2.091,2.69
		c0,0.896,0-0.2,0,0.597c0,1.793,1.893,1.893,2.391,1.893c18.628-0.199,33.372,0,54.092,0.1
		C734.455,792.716,738.439,790.724,738.539,785.046L738.539,785.046z"/>
</g>
<rect x="466.468" y="378.319" fill="none" stroke="#FF0000" stroke-width="2.834646e-004" width="14.938" height="85.645"/>
</svg>
