<?xml version="1.0" encoding="utf-8"?>
<!-- Generator: Adobe Illustrator 15.1.0, SVG Export Plug-In . SVG Version: 6.00 Build 0)  -->
<!DOCTYPE svg PUBLIC "-//W3C//DTD SVG 1.1//EN" "http://www.w3.org/Graphics/SVG/1.1/DTD/svg11.dtd">
<svg version="1.1" id="Layer_1" xmlns="http://www.w3.org/2000/svg" xmlns:xlink="http://www.w3.org/1999/xlink" x="0px" y="0px"
	 width="1700.791px" height="850.391px" viewBox="0 0 1700.791 850.391" enable-background="new 0 0 1700.791 850.391"
	 xml:space="preserve">
<title>fixture_som3</title>
<path id="path3690" fill="none" stroke="#FF0000" stroke-width="2.834646e-004" d="M1018.839,849.747l-619.576,0.699
	c0,0-10.403-0.9-8.903-11.403s0.7-829.637,0.7-829.637s-1.6-10.002,10.002-9.604c23.907,0.601,32.41,0.401,32.41,0.401l-0.5,25.607
	c0,0,0.7,12.804,14.204,13.304c13.503,0.499,566.461-1.901,566.461-1.901l-0.7-15.104c-0.8-18.306,7.503-22.105,7.503-22.105l0,0
	c10.902-0.3,12.604,1.1,12.904,7.702l0.299,827.937C1034.245,846.646,1026.442,850.047,1018.839,849.747L1018.839,849.747z"/>
<rect x="465.381" y="378.112" fill="none" stroke="#FF0000" stroke-width="2.834646e-004" width="15.005" height="86.024"/>
<ellipse fill="none" stroke="#FF0000" stroke-width="2.834646e-004" cx="617.7" cy="223.361" rx="125.15" ry="125.15"/>
<ellipse fill="none" stroke="#FF0000" stroke-width="2.834646e-004" cx="884.581" cy="223.379" rx="125.149" ry="125.149"/>
<ellipse fill="none" stroke="#FF0000" stroke-width="2.834646e-004" cx="884.563" cy="611.894" rx="125.15" ry="125.15"/>
<ellipse fill="none" stroke="#FF0000" stroke-width="2.834646e-004" cx="617.682" cy="611.876" rx="125.15" ry="125.15"/>
</svg>
